# xmcd CD database file generated by OrangeCD 5.2
#
# Track frame offsets:
#	150
#	33984
#	88518
#	104726
#	140428
#	165972
#
# Disc length: 2560 seconds
#
# Revision: 0
# Processed by: cddbd v1.5.1PL0 Copyright (c) Steve Scherf et al.
# Submitted via: OrangeCD 5.2
#
DISCID=4409fe06
DTITLE=Joe Turner and Jimmy Witherspoon - Joe Turner Meets Jimmy Witherspoon
DYEAR=1985
DGENRE=Jazz
TTITLE0=Patcha, Patcha
TTITLE1=Blues Lament
TTITLE2=You got Me Runnin'
TTITLE3=Kansas City On My Mind
TTITLE4=The Chicken and the Hawk
TTITLE5=I Want a Little Girl
EXTD=
EXTT0=
EXTT1=
EXTT2=
EXTT3=
EXTT4=
EXTT5=
PLAYORDER=
